<?xml version="1.0" encoding="UTF-8"?>
<svg version="1.1" xmlns="http://www.w3.org/2000/svg" width="512" height="512">
<path d="M0 0 C3.52446595 3.11883412 6.94993758 6.33320936 10.35693359 9.57958984 C11.13552734 10.30533203 11.91412109 11.03107422 12.71630859 11.77880859 C27.43979128 25.90186557 38.91917592 43.60696467 48.35693359 61.57958984 C48.70111328 62.23378906 49.04529297 62.88798828 49.39990234 63.56201172 C64.09929039 91.97519665 70.82812796 123.35921353 70.66943359 155.20458984 C70.66727844 155.98917572 70.66512329 156.7737616 70.66290283 157.5821228 C70.44406748 207.4544469 52.40374292 254.2287799 19.35693359 291.57958984 C18.61958984 292.43939453 17.88224609 293.29919922 17.12255859 294.18505859 C2.71227635 310.72532781 -14.57862673 323.8571034 -33.64306641 334.57958984 C-34.24441406 334.92473633 -34.84576172 335.26988281 -35.46533203 335.62548828 C-45.47373589 341.34995128 -55.82749746 345.61512013 -66.64306641 349.57958984 C-67.64506282 346.57360061 -67.74277812 344.68533339 -67.69311523 341.55175781 C-67.67363579 340.01272293 -67.67363579 340.01272293 -67.65376282 338.44259644 C-67.63605331 337.33022614 -67.61834381 336.21785583 -67.60009766 335.07177734 C-67.57767427 332.69808811 -67.55622279 330.32438954 -67.53564453 327.95068359 C-67.49885063 324.22304706 -67.45623119 320.49589425 -67.39624023 316.76855469 C-67.13165619 299.5139777 -66.92270984 282.63358485 -75.45556641 267.07958984 C-75.97485718 266.09345703 -75.97485718 266.09345703 -76.50463867 265.08740234 C-80.9677087 256.82842749 -86.36843033 250.47124421 -93.52978516 244.40380859 C-95.67383714 242.55302804 -97.65069484 240.5912315 -99.64306641 238.57958984 C-98.97476807 238.48460205 -98.30646973 238.38961426 -97.61791992 238.29174805 C-66.88316318 233.84908998 -36.6138 226.25307673 -15.64306641 201.57958984 C-2.84730567 184.42937822 2.69532312 163.6402331 0.08886719 142.39453125 C-2.30213922 127.57840808 -8.79468974 114.59623242 -17.97900391 102.81396484 C-21.71553994 97.79683195 -21.71553994 97.79683195 -21.51879883 94.49243164 C-21.34711182 93.76193604 -21.1754248 93.03144043 -20.99853516 92.27880859 C-20.81613281 91.46605469 -20.63373047 90.65330078 -20.44580078 89.81591797 C-20.24277344 88.97480469 -20.03974609 88.13369141 -19.83056641 87.26708984 C-16.33399445 72.11527804 -13.07033015 54.0299041 -21.24853516 39.78271484 C-21.93882812 38.69216797 -21.93882812 38.69216797 -22.64306641 37.57958984 C-42.82979435 37.92173777 -57.51533225 45.36484703 -72.64306641 58.57958984 C-73.09810547 59.18416016 -73.55314453 59.78873047 -74.02197266 60.41162109 C-75.64306641 61.57958984 -75.64306641 61.57958984 -78.83447266 61.38818359 C-82.06739246 60.70180985 -85.28352889 59.98045061 -88.48779297 59.17041016 C-114.97003447 52.48497261 -143.79896105 52.01472819 -169.86572266 60.90771484 C-173.00130754 61.66625296 -174.61315295 61.66485868 -177.64306641 60.57958984 C-179.86181641 58.79443359 -179.86181641 58.79443359 -182.14306641 56.51708984 C-195.74820628 43.87656846 -211.22270752 37.89179932 -229.64306641 37.57958984 C-238.74353669 51.53364428 -236.18142891 68.45485694 -233.49462891 84.07177734 C-233.36725342 84.81540527 -233.23987793 85.5590332 -233.10864258 86.32519531 C-232.67503073 88.6099085 -232.67503073 88.6099085 -231.92163086 90.90039062 C-230.22963725 96.56116186 -230.22963725 96.56116186 -231.40283203 99.45117188 C-232.68600444 101.32653771 -234.07705382 103.00114333 -235.58056641 104.70458984 C-249.09856815 121.56742774 -254.4352095 141.09283724 -252.64306641 162.57958984 C-249.90231375 183.40931006 -240.03969547 201.43011394 -223.50268555 214.38671875 C-216.72580657 219.5155899 -209.3953369 223.16542994 -201.64306641 226.57958984 C-200.59892578 227.05009766 -199.55478516 227.52060547 -198.47900391 228.00537109 C-184.02719948 234.03629206 -168.16536721 236.98205658 -152.64306641 238.57958984 C-155.49882384 241.48475484 -158.37142548 244.24438278 -161.51806641 246.82958984 C-167.60522831 252.16299436 -171.89052885 257.50581964 -174.80493164 265.10620117 C-176.12576423 268.3602637 -177.46059236 270.77781547 -179.64306641 273.57958984 C-184.12673231 275.46196121 -188.35022516 275.6353032 -193.13574219 275.59570312 C-195.92301036 275.57779079 -198.69726702 275.66843999 -201.48291016 275.76318359 C-203.51534074 275.81155934 -205.54790668 275.85455679 -207.58056641 275.89208984 C-208.53898438 275.91062012 -209.49740234 275.92915039 -210.48486328 275.94824219 C-219.10475992 275.93176914 -226.44679917 274.43516012 -232.89697266 268.44677734 C-235.68492582 265.4654762 -238.16380288 262.25591582 -240.67431641 259.04052734 C-246.42952278 251.84651938 -253.55410952 245.14314179 -262.64306641 242.57958984 C-264.97514661 242.5031282 -267.31152519 242.48815685 -269.64306641 242.57958984 C-269.30239222 245.48272635 -269.06386886 247.14171426 -267.00634766 249.28271484 C-266.32958984 249.79318359 -265.65283203 250.30365234 -264.95556641 250.82958984 C-255.42904936 258.75986339 -251.36014703 270.16860774 -247.17822266 281.53271484 C-243.1643155 292.32910958 -239.07176279 299.46004533 -228.36572266 304.57177734 C-222.16409504 306.8673583 -216.46326088 307.83393998 -209.86181641 307.99365234 C-209.16286255 308.01301849 -208.46390869 308.03238464 -207.74377441 308.05233765 C-205.54365677 308.11141134 -203.34348469 308.15822458 -201.14306641 308.20458984 C-199.63783712 308.24283641 -198.13262816 308.28189186 -196.62744141 308.32177734 C-192.96617071 308.41705109 -189.30474519 308.50134341 -185.64306641 308.57958984 C-185.61801025 309.72435791 -185.5929541 310.86912598 -185.56713867 312.04858398 C-185.47257062 316.31838099 -185.37247288 320.58803393 -185.27075195 324.85766602 C-185.22758912 326.7013816 -185.18590189 328.54513236 -185.14575195 330.38891602 C-185.08759475 333.04763364 -185.02403421 335.70617719 -184.95947266 338.36474609 C-184.94276016 339.18169449 -184.92604767 339.99864288 -184.90882874 340.84034729 C-184.78968856 345.50125176 -184.39883586 349.97773383 -183.64306641 354.57958984 C-190.33182786 353.39073091 -196.67903405 351.7886431 -203.08056641 349.51708984 C-203.9389209 349.21254883 -204.79727539 348.90800781 -205.68164062 348.59423828 C-226.78874501 340.90839423 -246.3381811 329.91282313 -263.64306641 315.57958984 C-264.51705078 314.85787598 -264.51705078 314.85787598 -265.40869141 314.12158203 C-276.61582368 304.81223871 -286.62969831 295.07398957 -295.64306641 283.57958984 C-296.36236328 282.67724609 -297.08166016 281.77490234 -297.82275391 280.84521484 C-331.46730143 237.50241697 -344.91210358 182.58999895 -338.8737793 128.36938477 C-332.72058929 83.3543866 -311.76618834 43.2425364 -280.64306641 10.57958984 C-279.91732422 9.80099609 -279.19158203 9.02240234 -278.44384766 8.22021484 C-264.32079068 -6.50326784 -246.61569158 -17.98265248 -228.64306641 -27.42041016 C-227.98886719 -27.76458984 -227.33466797 -28.10876953 -226.66064453 -28.46337891 C-206.1968641 -39.05019098 -184.33397561 -44.91324536 -161.64306641 -48.42041016 C-160.58067749 -48.58839111 -160.58067749 -48.58839111 -159.49682617 -48.75976562 C-102.43381671 -56.44672644 -43.24923012 -37.3884132 0 0 Z " fill="#FAB004" transform="translate(390.64306640625,100.42041015625)"/>
</svg>
